<mxfile host="app.diagrams.net" modified="2023-06-07T06:56:31.585Z" agent="Mozilla/5.0 (X11; Linux x86_64) AppleWebKit/537.36 (KHTML, like Gecko) Chrome/112.0.0.0 Safari/537.36" etag="9uTPGa5unHMppjA8qcHL" version="21.3.2" type="device">
  <diagram name="Страница 1" id="nTM-65XrCsN44F-tG8v7">
    <mxGraphModel dx="8888" dy="2780" grid="1" gridSize="10" guides="1" tooltips="1" connect="1" arrows="1" fold="1" page="1" pageScale="1" pageWidth="827" pageHeight="1169" math="0" shadow="0">
      <root>
        <mxCell id="0" />
        <mxCell id="1" parent="0" />
        <mxCell id="4cCEXYLUBhIlcCvlgMIO-74" value="coffeeShopFlow" style="shape=tape;whiteSpace=wrap;html=1;verticalAlign=top;align=left;fontSize=16;fontStyle=1;fillColor=#cce5ff;strokeColor=#36393d;opacity=50;size=0.16;" vertex="1" parent="1">
          <mxGeometry x="-3235" y="200.5" width="1760" height="450" as="geometry" />
        </mxCell>
        <mxCell id="4cCEXYLUBhIlcCvlgMIO-72" value="incomingOrdersChannel" style="rounded=0;whiteSpace=wrap;html=1;dashed=1;dashPattern=12 12;fillColor=#E6FFCC;opacity=50;verticalAlign=middle;align=center;fontStyle=3;fontSize=16;" vertex="1" parent="1">
          <mxGeometry x="-2701" y="331" width="220" height="70" as="geometry" />
        </mxCell>
        <mxCell id="4cCEXYLUBhIlcCvlgMIO-60" value="coffeeMachineWaterChannel" style="rounded=0;whiteSpace=wrap;html=1;dashed=1;dashPattern=12 12;fillColor=#E6FFCC;opacity=50;verticalAlign=top;align=left;fontStyle=1" vertex="1" parent="1">
          <mxGeometry x="-325.75" y="223" width="190" height="100" as="geometry" />
        </mxCell>
        <mxCell id="4cCEXYLUBhIlcCvlgMIO-59" value="cappuccinatorMilkChannel" style="rounded=0;whiteSpace=wrap;html=1;dashed=1;dashPattern=12 12;fillColor=#FF0000;opacity=10;align=left;verticalAlign=top;fontStyle=1" vertex="1" parent="1">
          <mxGeometry x="-325.75" y="455.5" width="600" height="105" as="geometry" />
        </mxCell>
        <mxCell id="4cCEXYLUBhIlcCvlgMIO-12" value="CoffeeMachine::&lt;br&gt;pourInFreshWater" style="shape=parallelogram;perimeter=parallelogramPerimeter;whiteSpace=wrap;html=1;fixedSize=1;fillColor=#cdeb8b;strokeColor=#36393d;fontStyle=1" vertex="1" parent="1">
          <mxGeometry x="-305.75" y="253" width="140" height="60" as="geometry" />
        </mxCell>
        <mxCell id="4cCEXYLUBhIlcCvlgMIO-30" value="Cappuccinator::&lt;br&gt;pourInMilk" style="shape=parallelogram;perimeter=parallelogramPerimeter;whiteSpace=wrap;html=1;fixedSize=1;fillColor=#cdeb8b;strokeColor=#36393d;fontStyle=1" vertex="1" parent="1">
          <mxGeometry x="-315.75" y="485.5" width="140" height="60" as="geometry" />
        </mxCell>
        <mxCell id="4cCEXYLUBhIlcCvlgMIO-48" value="OrderInitializer::&lt;br&gt;initOrder" style="shape=hexagon;perimeter=hexagonPerimeter2;whiteSpace=wrap;html=1;fixedSize=1;fillColor=#ffff88;strokeColor=#36393d;" vertex="1" parent="1">
          <mxGeometry x="-2370" y="331.25" width="110" height="70" as="geometry" />
        </mxCell>
        <mxCell id="4cCEXYLUBhIlcCvlgMIO-49" value="StorageService::&lt;br&gt;supplyIngredients" style="shape=hexagon;perimeter=hexagonPerimeter2;whiteSpace=wrap;html=1;fixedSize=1;fillColor=#ffff88;strokeColor=#36393d;" vertex="1" parent="1">
          <mxGeometry x="-2020" y="331.25" width="120" height="70" as="geometry" />
        </mxCell>
        <mxCell id="4cCEXYLUBhIlcCvlgMIO-56" value="Диаграмма процесса приготовления кофе" style="text;html=1;strokeColor=none;fillColor=none;align=center;verticalAlign=middle;whiteSpace=wrap;rounded=0;fontSize=50;" vertex="1" parent="1">
          <mxGeometry x="-1470" y="40" width="1100" height="90" as="geometry" />
        </mxCell>
        <mxCell id="4cCEXYLUBhIlcCvlgMIO-62" value="GoffeeshopGateway&lt;br&gt;&lt;span style=&quot;font-weight: normal;&quot;&gt;&lt;br&gt;process(List&amp;lt;Order&amp;gt;)&lt;/span&gt;" style="shape=parallelogram;perimeter=parallelogramPerimeter;whiteSpace=wrap;html=1;fixedSize=1;fontStyle=1;fontSize=15;verticalAlign=middle;fillColor=#ffcc99;strokeColor=#36393d;" vertex="1" parent="1">
          <mxGeometry x="-2920" y="290" width="190" height="290" as="geometry" />
        </mxCell>
        <mxCell id="4cCEXYLUBhIlcCvlgMIO-71" value="" style="endArrow=classic;html=1;rounded=0;exitX=1;exitY=0.25;exitDx=0;exitDy=0;entryX=0;entryY=0.5;entryDx=0;entryDy=0;" edge="1" parent="1" source="4cCEXYLUBhIlcCvlgMIO-62" target="4cCEXYLUBhIlcCvlgMIO-72">
          <mxGeometry width="50" height="50" relative="1" as="geometry">
            <mxPoint x="-2630" y="436" as="sourcePoint" />
            <mxPoint x="-2580" y="386" as="targetPoint" />
          </mxGeometry>
        </mxCell>
        <mxCell id="4cCEXYLUBhIlcCvlgMIO-76" value="outgoingProductsChannel" style="rounded=0;whiteSpace=wrap;html=1;dashed=1;dashPattern=12 12;fillColor=#E6FFCC;opacity=50;verticalAlign=middle;align=center;fontStyle=3;fontSize=16;" vertex="1" parent="1">
          <mxGeometry x="-2701" y="462" width="220" height="70" as="geometry" />
        </mxCell>
        <mxCell id="4cCEXYLUBhIlcCvlgMIO-77" value="" style="endArrow=classic;html=1;rounded=0;entryX=1;entryY=0.75;entryDx=0;entryDy=0;exitX=0;exitY=0.5;exitDx=0;exitDy=0;" edge="1" parent="1" source="4cCEXYLUBhIlcCvlgMIO-76" target="4cCEXYLUBhIlcCvlgMIO-62">
          <mxGeometry width="50" height="50" relative="1" as="geometry">
            <mxPoint x="-2510" y="680" as="sourcePoint" />
            <mxPoint x="-2390" y="346" as="targetPoint" />
          </mxGeometry>
        </mxCell>
        <mxCell id="4cCEXYLUBhIlcCvlgMIO-78" value="split" style="triangle;whiteSpace=wrap;html=1;rotation=0;flipH=1;" vertex="1" parent="1">
          <mxGeometry x="-2170" y="341" width="70" height="50" as="geometry" />
        </mxCell>
        <mxCell id="4cCEXYLUBhIlcCvlgMIO-84" value="" style="endArrow=classic;html=1;rounded=0;exitX=1;exitY=0.5;exitDx=0;exitDy=0;entryX=0;entryY=0.5;entryDx=0;entryDy=0;" edge="1" parent="1" source="4cCEXYLUBhIlcCvlgMIO-48" target="4cCEXYLUBhIlcCvlgMIO-78">
          <mxGeometry width="50" height="50" relative="1" as="geometry">
            <mxPoint x="60" y="-56.25" as="sourcePoint" />
            <mxPoint x="-180" y="-31.25" as="targetPoint" />
          </mxGeometry>
        </mxCell>
        <mxCell id="4cCEXYLUBhIlcCvlgMIO-86" value="KitchenGateway::&lt;br&gt;cook" style="shape=hexagon;perimeter=hexagonPerimeter2;whiteSpace=wrap;html=1;fixedSize=1;fillColor=#ffff88;strokeColor=#36393d;" vertex="1" parent="1">
          <mxGeometry x="-1760" y="331.25" width="130" height="70" as="geometry" />
        </mxCell>
        <mxCell id="4cCEXYLUBhIlcCvlgMIO-87" value="" style="endArrow=classic;html=1;rounded=0;exitX=1;exitY=0.5;exitDx=0;exitDy=0;entryX=0;entryY=0.5;entryDx=0;entryDy=0;" edge="1" parent="1" source="4cCEXYLUBhIlcCvlgMIO-49" target="4cCEXYLUBhIlcCvlgMIO-86">
          <mxGeometry width="50" height="50" relative="1" as="geometry">
            <mxPoint x="570" y="-210" as="sourcePoint" />
            <mxPoint x="620" y="-260" as="targetPoint" />
          </mxGeometry>
        </mxCell>
        <mxCell id="4cCEXYLUBhIlcCvlgMIO-90" value="aggregate" style="triangle;whiteSpace=wrap;html=1;rotation=0;flipH=1;direction=west;align=left;" vertex="1" parent="1">
          <mxGeometry x="-2170" y="471.5" width="70" height="50" as="geometry" />
        </mxCell>
        <mxCell id="4cCEXYLUBhIlcCvlgMIO-91" value="" style="endArrow=classic;html=1;rounded=0;exitX=1;exitY=0.5;exitDx=0;exitDy=0;entryX=0;entryY=0.25;entryDx=0;entryDy=0;" edge="1" parent="1" source="4cCEXYLUBhIlcCvlgMIO-86" target="4cCEXYLUBhIlcCvlgMIO-144">
          <mxGeometry width="50" height="50" relative="1" as="geometry">
            <mxPoint x="860" y="-35" as="sourcePoint" />
            <mxPoint x="-1530" y="80" as="targetPoint" />
          </mxGeometry>
        </mxCell>
        <mxCell id="4cCEXYLUBhIlcCvlgMIO-66" value="GoffeeshopService&lt;br&gt;&lt;span style=&quot;font-weight: normal;&quot;&gt;cookCoffee(coffeeType, quantity)&lt;/span&gt;" style="shape=parallelogram;perimeter=parallelogramPerimeter;whiteSpace=wrap;html=1;fixedSize=1;fontStyle=1;fontSize=15;verticalAlign=top;fillColor=#eeeeee;strokeColor=#36393d;" vertex="1" parent="1">
          <mxGeometry x="-3200" y="355" width="260" height="113" as="geometry" />
        </mxCell>
        <mxCell id="4cCEXYLUBhIlcCvlgMIO-67" value="Named createOrders&lt;br&gt;(coffeeType, quantity)" style="rounded=0;whiteSpace=wrap;html=1;" vertex="1" parent="1">
          <mxGeometry x="-3130" y="414" width="130" height="40" as="geometry" />
        </mxCell>
        <mxCell id="4cCEXYLUBhIlcCvlgMIO-96" value="" style="endArrow=classic;startArrow=classic;html=1;rounded=0;exitX=1;exitY=0.5;exitDx=0;exitDy=0;entryX=0;entryY=0.5;entryDx=0;entryDy=0;" edge="1" parent="1" source="4cCEXYLUBhIlcCvlgMIO-67" target="4cCEXYLUBhIlcCvlgMIO-62">
          <mxGeometry width="50" height="50" relative="1" as="geometry">
            <mxPoint x="-2950" y="346" as="sourcePoint" />
            <mxPoint x="-2900" y="296" as="targetPoint" />
          </mxGeometry>
        </mxCell>
        <mxCell id="4cCEXYLUBhIlcCvlgMIO-103" value="" style="endArrow=classic;html=1;rounded=0;exitX=1;exitY=0.5;exitDx=0;exitDy=0;entryX=0;entryY=0.5;entryDx=0;entryDy=0;" edge="1" parent="1" source="4cCEXYLUBhIlcCvlgMIO-78" target="4cCEXYLUBhIlcCvlgMIO-49">
          <mxGeometry width="50" height="50" relative="1" as="geometry">
            <mxPoint x="940" y="10" as="sourcePoint" />
            <mxPoint x="990" y="-40" as="targetPoint" />
          </mxGeometry>
        </mxCell>
        <mxCell id="4cCEXYLUBhIlcCvlgMIO-105" value="" style="endArrow=classic;html=1;rounded=0;exitX=1;exitY=0.5;exitDx=0;exitDy=0;entryX=0;entryY=0.5;entryDx=0;entryDy=0;" edge="1" parent="1" source="4cCEXYLUBhIlcCvlgMIO-72" target="4cCEXYLUBhIlcCvlgMIO-48">
          <mxGeometry width="50" height="50" relative="1" as="geometry">
            <mxPoint x="-110" y="13.75" as="sourcePoint" />
            <mxPoint x="-60" y="-36.25" as="targetPoint" />
          </mxGeometry>
        </mxCell>
        <mxCell id="4cCEXYLUBhIlcCvlgMIO-110" value="incomingIngredients&lt;br&gt;Channel" style="rounded=0;whiteSpace=wrap;html=1;dashed=1;dashPattern=12 12;fillColor=#E6FFCC;opacity=50;verticalAlign=middle;align=center;fontStyle=3;fontSize=16;" vertex="1" parent="1">
          <mxGeometry x="-1240" y="328" width="170" height="58" as="geometry" />
        </mxCell>
        <mxCell id="4cCEXYLUBhIlcCvlgMIO-111" value="coffeeMachineBeansChannel" style="rounded=0;whiteSpace=wrap;html=1;dashed=1;dashPattern=12 12;fillColor=#E6FFCC;opacity=50;verticalAlign=top;align=left;fontStyle=1" vertex="1" parent="1">
          <mxGeometry x="-325.75" y="333" width="190" height="100" as="geometry" />
        </mxCell>
        <mxCell id="4cCEXYLUBhIlcCvlgMIO-113" value="CoffeeMachine::&lt;br&gt;pourInCoffeeBeans" style="shape=parallelogram;perimeter=parallelogramPerimeter;whiteSpace=wrap;html=1;fixedSize=1;fillColor=#cdeb8b;strokeColor=#36393d;fontStyle=1" vertex="1" parent="1">
          <mxGeometry x="-305.75" y="363" width="140" height="60" as="geometry" />
        </mxCell>
        <mxCell id="4cCEXYLUBhIlcCvlgMIO-114" value="coffeeMachineRunChannel" style="rounded=0;whiteSpace=wrap;html=1;dashed=1;dashPattern=12 12;fillColor=#E6FFCC;opacity=50;verticalAlign=top;align=left;fontStyle=3;fontSize=16;" vertex="1" parent="1">
          <mxGeometry x="70" y="220" width="300" height="220" as="geometry" />
        </mxCell>
        <mxCell id="4cCEXYLUBhIlcCvlgMIO-115" value="coffeeCupChannel" style="rounded=0;whiteSpace=wrap;html=1;dashed=1;dashPattern=12 12;fillColor=#ffe6cc;opacity=50;verticalAlign=top;align=left;fontStyle=3;strokeColor=#d79b00;fontSize=16;" vertex="1" parent="1">
          <mxGeometry x="470" y="323" width="405" height="186" as="geometry" />
        </mxCell>
        <mxCell id="4cCEXYLUBhIlcCvlgMIO-116" value="" style="endArrow=classic;html=1;rounded=0;exitX=1;exitY=0.5;exitDx=0;exitDy=0;entryX=0;entryY=0.25;entryDx=0;entryDy=0;" edge="1" parent="1" source="4cCEXYLUBhIlcCvlgMIO-60" target="4cCEXYLUBhIlcCvlgMIO-114">
          <mxGeometry width="50" height="50" relative="1" as="geometry">
            <mxPoint x="440.75" y="488" as="sourcePoint" />
            <mxPoint x="490.75" y="438" as="targetPoint" />
          </mxGeometry>
        </mxCell>
        <mxCell id="4cCEXYLUBhIlcCvlgMIO-117" value="" style="endArrow=classic;html=1;rounded=0;exitX=1;exitY=0.5;exitDx=0;exitDy=0;entryX=0;entryY=0.75;entryDx=0;entryDy=0;" edge="1" parent="1" source="4cCEXYLUBhIlcCvlgMIO-111" target="4cCEXYLUBhIlcCvlgMIO-114">
          <mxGeometry width="50" height="50" relative="1" as="geometry">
            <mxPoint x="440.75" y="488" as="sourcePoint" />
            <mxPoint x="490.75" y="438" as="targetPoint" />
          </mxGeometry>
        </mxCell>
        <mxCell id="4cCEXYLUBhIlcCvlgMIO-118" value="" style="endArrow=classic;html=1;rounded=0;entryX=0;entryY=0.25;entryDx=0;entryDy=0;exitX=1;exitY=0.5;exitDx=0;exitDy=0;" edge="1" parent="1" source="4cCEXYLUBhIlcCvlgMIO-136" target="4cCEXYLUBhIlcCvlgMIO-130">
          <mxGeometry width="50" height="50" relative="1" as="geometry">
            <mxPoint x="444.25" y="508" as="sourcePoint" />
            <mxPoint x="494.25" y="458" as="targetPoint" />
            <Array as="points">
              <mxPoint x="410" y="330" />
              <mxPoint x="410" y="407" />
            </Array>
          </mxGeometry>
        </mxCell>
        <mxCell id="4cCEXYLUBhIlcCvlgMIO-119" value="Cappuccinator::&lt;br&gt;frothMilk" style="shape=parallelogram;perimeter=parallelogramPerimeter;whiteSpace=wrap;html=1;fixedSize=1;fillColor=#cdeb8b;strokeColor=#36393d;fontStyle=1" vertex="1" parent="1">
          <mxGeometry x="-45.75" y="485.5" width="140" height="60" as="geometry" />
        </mxCell>
        <mxCell id="4cCEXYLUBhIlcCvlgMIO-120" value="" style="endArrow=classic;html=1;rounded=0;exitX=1;exitY=0.5;exitDx=0;exitDy=0;entryX=0;entryY=0.5;entryDx=0;entryDy=0;" edge="1" parent="1" source="4cCEXYLUBhIlcCvlgMIO-30" target="4cCEXYLUBhIlcCvlgMIO-119">
          <mxGeometry width="50" height="50" relative="1" as="geometry">
            <mxPoint x="104.25" y="465.5" as="sourcePoint" />
            <mxPoint x="154.25" y="415.5" as="targetPoint" />
          </mxGeometry>
        </mxCell>
        <mxCell id="4cCEXYLUBhIlcCvlgMIO-121" value="" style="endArrow=classic;html=1;rounded=0;entryX=0;entryY=0.75;entryDx=0;entryDy=0;exitX=1;exitY=0.5;exitDx=0;exitDy=0;" edge="1" parent="1" source="4cCEXYLUBhIlcCvlgMIO-119" target="4cCEXYLUBhIlcCvlgMIO-130">
          <mxGeometry width="50" height="50" relative="1" as="geometry">
            <mxPoint x="444.25" y="508" as="sourcePoint" />
            <mxPoint x="494.25" y="458" as="targetPoint" />
            <Array as="points">
              <mxPoint x="410" y="516" />
              <mxPoint x="410" y="432" />
            </Array>
          </mxGeometry>
        </mxCell>
        <mxCell id="4cCEXYLUBhIlcCvlgMIO-122" value="CoffeeMachine::&lt;br&gt;isReady" style="shape=parallelogram;perimeter=parallelogramPerimeter;whiteSpace=wrap;html=1;fixedSize=1;fillColor=#cdeb8b;strokeColor=#36393d;fontStyle=1" vertex="1" parent="1">
          <mxGeometry x="78.25" y="300" width="140" height="60" as="geometry" />
        </mxCell>
        <mxCell id="4cCEXYLUBhIlcCvlgMIO-123" value="" style="endArrow=classic;html=1;rounded=0;exitX=1;exitY=0.25;exitDx=0;exitDy=0;entryX=0;entryY=0.5;entryDx=0;entryDy=0;" edge="1" parent="1" source="4cCEXYLUBhIlcCvlgMIO-127" target="4cCEXYLUBhIlcCvlgMIO-60">
          <mxGeometry width="50" height="50" relative="1" as="geometry">
            <mxPoint x="4.25" y="508" as="sourcePoint" />
            <mxPoint x="54.25" y="458" as="targetPoint" />
          </mxGeometry>
        </mxCell>
        <mxCell id="4cCEXYLUBhIlcCvlgMIO-124" value="" style="endArrow=classic;html=1;rounded=0;exitX=1;exitY=0.5;exitDx=0;exitDy=0;entryX=0;entryY=0.5;entryDx=0;entryDy=0;" edge="1" parent="1" source="4cCEXYLUBhIlcCvlgMIO-127" target="4cCEXYLUBhIlcCvlgMIO-111">
          <mxGeometry width="50" height="50" relative="1" as="geometry">
            <mxPoint x="4.25" y="508" as="sourcePoint" />
            <mxPoint x="54.25" y="458" as="targetPoint" />
          </mxGeometry>
        </mxCell>
        <mxCell id="4cCEXYLUBhIlcCvlgMIO-125" value="" style="endArrow=classic;html=1;rounded=0;exitX=1;exitY=0.75;exitDx=0;exitDy=0;entryX=0;entryY=0.5;entryDx=0;entryDy=0;" edge="1" parent="1" source="4cCEXYLUBhIlcCvlgMIO-127" target="4cCEXYLUBhIlcCvlgMIO-59">
          <mxGeometry width="50" height="50" relative="1" as="geometry">
            <mxPoint x="4.25" y="508" as="sourcePoint" />
            <mxPoint x="54.25" y="458" as="targetPoint" />
          </mxGeometry>
        </mxCell>
        <mxCell id="4cCEXYLUBhIlcCvlgMIO-127" value="scatterGather" style="shape=hexagon;perimeter=hexagonPerimeter2;whiteSpace=wrap;html=1;fixedSize=1;fillColor=#ffff88;strokeColor=#36393d;fontStyle=1;fontSize=14;" vertex="1" parent="1">
          <mxGeometry x="-615.75" y="307" width="150" height="100" as="geometry" />
        </mxCell>
        <mxCell id="4cCEXYLUBhIlcCvlgMIO-128" value="" style="endArrow=classic;html=1;rounded=0;entryX=0;entryY=0.5;entryDx=0;entryDy=0;exitX=1;exitY=0.5;exitDx=0;exitDy=0;" edge="1" parent="1" source="4cCEXYLUBhIlcCvlgMIO-110" target="4cCEXYLUBhIlcCvlgMIO-156">
          <mxGeometry width="50" height="50" relative="1" as="geometry">
            <mxPoint x="-235.75" y="498" as="sourcePoint" />
            <mxPoint x="54.25" y="458" as="targetPoint" />
          </mxGeometry>
        </mxCell>
        <mxCell id="4cCEXYLUBhIlcCvlgMIO-130" value="CoffeeCupSupplier::&lt;br&gt;pourIn" style="shape=parallelogram;perimeter=parallelogramPerimeter;whiteSpace=wrap;html=1;fixedSize=1;fillColor=#cdeb8b;strokeColor=#36393d;fontStyle=1" vertex="1" parent="1">
          <mxGeometry x="570" y="388.5" width="140" height="60" as="geometry" />
        </mxCell>
        <mxCell id="4cCEXYLUBhIlcCvlgMIO-135" value="FrothedMilk" style="rounded=0;whiteSpace=wrap;html=1;dashed=1;dashPattern=1 2;container=0;" vertex="1" parent="1">
          <mxGeometry x="100" y="491" width="140" height="20" as="geometry" />
        </mxCell>
        <mxCell id="4cCEXYLUBhIlcCvlgMIO-136" value="CoffeeMachine::&lt;br&gt;boil" style="shape=parallelogram;perimeter=parallelogramPerimeter;whiteSpace=wrap;html=1;fixedSize=1;fillColor=#cdeb8b;strokeColor=#36393d;fontStyle=1" vertex="1" parent="1">
          <mxGeometry x="220" y="300" width="140" height="60" as="geometry" />
        </mxCell>
        <mxCell id="4cCEXYLUBhIlcCvlgMIO-137" value="Coffee" style="rounded=0;whiteSpace=wrap;html=1;dashed=1;dashPattern=1 2;container=0;" vertex="1" parent="1">
          <mxGeometry x="370" y="307" width="60" height="20" as="geometry" />
        </mxCell>
        <mxCell id="4cCEXYLUBhIlcCvlgMIO-138" value="" style="endArrow=classic;html=1;rounded=0;entryX=0;entryY=0.5;entryDx=0;entryDy=0;exitX=1;exitY=0.5;exitDx=0;exitDy=0;" edge="1" parent="1" source="4cCEXYLUBhIlcCvlgMIO-122" target="4cCEXYLUBhIlcCvlgMIO-136">
          <mxGeometry width="50" height="50" relative="1" as="geometry">
            <mxPoint x="254.25" y="448" as="sourcePoint" />
            <mxPoint x="304.25" y="338" as="targetPoint" />
          </mxGeometry>
        </mxCell>
        <mxCell id="4cCEXYLUBhIlcCvlgMIO-140" value="List&amp;lt;Order&amp;gt;" style="rounded=0;whiteSpace=wrap;html=1;dashed=1;dashPattern=1 2;container=0;" vertex="1" parent="1">
          <mxGeometry x="-2260" y="342" width="80" height="20" as="geometry" />
        </mxCell>
        <mxCell id="4cCEXYLUBhIlcCvlgMIO-141" value="Order" style="rounded=0;whiteSpace=wrap;html=1;dashed=1;dashPattern=1 2;container=0;" vertex="1" parent="1">
          <mxGeometry x="-2094" y="342" width="60" height="20" as="geometry" />
        </mxCell>
        <mxCell id="4cCEXYLUBhIlcCvlgMIO-143" value="" style="endArrow=classic;html=1;rounded=0;exitX=1;exitY=0.5;exitDx=0;exitDy=0;entryX=0;entryY=0.5;entryDx=0;entryDy=0;" edge="1" parent="1" source="4cCEXYLUBhIlcCvlgMIO-130" target="4cCEXYLUBhIlcCvlgMIO-164">
          <mxGeometry width="50" height="50" relative="1" as="geometry">
            <mxPoint x="-190" y="321" as="sourcePoint" />
            <mxPoint x="990" y="181" as="targetPoint" />
          </mxGeometry>
        </mxCell>
        <mxCell id="4cCEXYLUBhIlcCvlgMIO-144" value="KitchenGateway&lt;br&gt;&lt;span style=&quot;font-weight: normal;&quot;&gt;&lt;br&gt;Named cook(Message)&lt;/span&gt;" style="shape=parallelogram;perimeter=parallelogramPerimeter;whiteSpace=wrap;html=1;fixedSize=1;fontStyle=1;fontSize=15;verticalAlign=middle;fillColor=#ffcc99;strokeColor=#36393d;" vertex="1" parent="1">
          <mxGeometry x="-1470" y="238.25" width="190" height="448.5" as="geometry" />
        </mxCell>
        <mxCell id="4cCEXYLUBhIlcCvlgMIO-145" value="" style="endArrow=classic;html=1;rounded=0;exitX=0;exitY=0.75;exitDx=0;exitDy=0;entryX=0;entryY=0.5;entryDx=0;entryDy=0;" edge="1" parent="1" source="4cCEXYLUBhIlcCvlgMIO-144" target="4cCEXYLUBhIlcCvlgMIO-90">
          <mxGeometry width="50" height="50" relative="1" as="geometry">
            <mxPoint x="-1380" y="330" as="sourcePoint" />
            <mxPoint x="-1910" y="610" as="targetPoint" />
            <Array as="points">
              <mxPoint x="-2030" y="560" />
              <mxPoint x="-2030" y="497" />
            </Array>
          </mxGeometry>
        </mxCell>
        <mxCell id="4cCEXYLUBhIlcCvlgMIO-146" value="" style="endArrow=classic;html=1;rounded=0;entryX=0;entryY=0.5;entryDx=0;entryDy=0;exitX=1;exitY=0.25;exitDx=0;exitDy=0;" edge="1" parent="1" source="4cCEXYLUBhIlcCvlgMIO-144" target="4cCEXYLUBhIlcCvlgMIO-110">
          <mxGeometry width="50" height="50" relative="1" as="geometry">
            <mxPoint x="-991.0277777777774" y="327.1041666666665" as="sourcePoint" />
            <mxPoint x="-995.75" y="278" as="targetPoint" />
          </mxGeometry>
        </mxCell>
        <mxCell id="4cCEXYLUBhIlcCvlgMIO-148" value="List&amp;lt;Order&amp;gt;" style="rounded=0;whiteSpace=wrap;html=1;dashed=1;dashPattern=1 2;container=0;" vertex="1" parent="1">
          <mxGeometry x="-2475" y="342" width="80" height="20" as="geometry" />
        </mxCell>
        <mxCell id="4cCEXYLUBhIlcCvlgMIO-151" value="List&amp;lt;AbstractProduct&amp;gt;" style="rounded=0;whiteSpace=wrap;html=1;dashed=1;dashPattern=1 2;container=0;" vertex="1" parent="1">
          <mxGeometry x="-1900" y="342" width="130" height="20" as="geometry" />
        </mxCell>
        <mxCell id="4cCEXYLUBhIlcCvlgMIO-152" value="List&amp;lt;AbstractProduct&amp;gt;" style="rounded=0;whiteSpace=wrap;html=1;dashed=1;dashPattern=1 2;container=0;" vertex="1" parent="1">
          <mxGeometry x="-1059.9999999999998" y="333" width="130" height="20" as="geometry" />
        </mxCell>
        <mxCell id="4cCEXYLUBhIlcCvlgMIO-153" value="List&amp;lt;AbstractProduct&amp;gt;" style="rounded=0;whiteSpace=wrap;html=1;dashed=1;dashPattern=1 2;container=0;" vertex="1" parent="1">
          <mxGeometry x="-477.9999999999998" y="263" width="130" height="20" as="geometry" />
        </mxCell>
        <mxCell id="4cCEXYLUBhIlcCvlgMIO-154" value="List&amp;lt;AbstractProduct&amp;gt;" style="rounded=0;whiteSpace=wrap;html=1;dashed=1;dashPattern=1 2;container=0;" vertex="1" parent="1">
          <mxGeometry x="-455.7499999999998" y="335" width="130" height="20" as="geometry" />
        </mxCell>
        <mxCell id="4cCEXYLUBhIlcCvlgMIO-155" value="List&amp;lt;AbstractProduct&amp;gt;" style="rounded=0;whiteSpace=wrap;html=1;dashed=1;dashPattern=1 2;container=0;" vertex="1" parent="1">
          <mxGeometry x="-519.9999999999998" y="455.5" width="130" height="20" as="geometry" />
        </mxCell>
        <mxCell id="4cCEXYLUBhIlcCvlgMIO-156" value="KitchenService::&lt;br&gt;informOrderReceived" style="shape=hexagon;perimeter=hexagonPerimeter2;whiteSpace=wrap;html=1;fixedSize=1;fillColor=#ffff88;strokeColor=#36393d;" vertex="1" parent="1">
          <mxGeometry x="-920" y="323" width="150" height="70" as="geometry" />
        </mxCell>
        <mxCell id="4cCEXYLUBhIlcCvlgMIO-157" value="" style="endArrow=classic;html=1;rounded=0;entryX=0;entryY=0.5;entryDx=0;entryDy=0;exitX=1;exitY=0.5;exitDx=0;exitDy=0;" edge="1" parent="1" source="4cCEXYLUBhIlcCvlgMIO-156" target="4cCEXYLUBhIlcCvlgMIO-127">
          <mxGeometry width="50" height="50" relative="1" as="geometry">
            <mxPoint x="-865.75" y="358" as="sourcePoint" />
            <mxPoint x="-815.75" y="308" as="targetPoint" />
          </mxGeometry>
        </mxCell>
        <mxCell id="4cCEXYLUBhIlcCvlgMIO-158" value="List&amp;lt;AbstractProduct&amp;gt;" style="rounded=0;whiteSpace=wrap;html=1;dashed=1;dashPattern=1 2;container=0;" vertex="1" parent="1">
          <mxGeometry x="-759.9999999999998" y="333" width="130" height="20" as="geometry" />
        </mxCell>
        <mxCell id="4cCEXYLUBhIlcCvlgMIO-159" value="List&amp;lt;AbstractProduct&amp;gt;" style="rounded=0;whiteSpace=wrap;html=1;dashed=1;dashPattern=1 2;container=0;" vertex="1" parent="1">
          <mxGeometry x="-99.99999999999977" y="249" width="130" height="20" as="geometry" />
        </mxCell>
        <mxCell id="4cCEXYLUBhIlcCvlgMIO-160" value="List&amp;lt;AbstractProduct&amp;gt;" style="rounded=0;whiteSpace=wrap;html=1;dashed=1;dashPattern=1 2;container=0;" vertex="1" parent="1">
          <mxGeometry x="-99.99999999999977" y="360" width="130" height="20" as="geometry" />
        </mxCell>
        <mxCell id="4cCEXYLUBhIlcCvlgMIO-161" value="List&amp;lt;AbstractProduct&amp;gt;" style="rounded=0;whiteSpace=wrap;html=1;dashed=1;dashPattern=1 2;container=0;" vertex="1" parent="1">
          <mxGeometry x="-175.74999999999977" y="490" width="130" height="20" as="geometry" />
        </mxCell>
        <mxCell id="4cCEXYLUBhIlcCvlgMIO-162" value="Coffee" style="rounded=0;whiteSpace=wrap;html=1;dashed=1;dashPattern=1 2;container=0;" vertex="1" parent="1">
          <mxGeometry x="520" y="380" width="60" height="20" as="geometry" />
        </mxCell>
        <mxCell id="4cCEXYLUBhIlcCvlgMIO-163" value="FrothedMilk" style="rounded=0;whiteSpace=wrap;html=1;dashed=1;dashPattern=1 2;container=0;" vertex="1" parent="1">
          <mxGeometry x="480" y="442" width="80" height="20" as="geometry" />
        </mxCell>
        <mxCell id="4cCEXYLUBhIlcCvlgMIO-164" value="CoffeeCup::&lt;br&gt;isFull" style="shape=parallelogram;perimeter=parallelogramPerimeter;whiteSpace=wrap;html=1;fixedSize=1;fillColor=#cdeb8b;strokeColor=#36393d;fontStyle=1" vertex="1" parent="1">
          <mxGeometry x="800" y="388.5" width="140" height="60" as="geometry" />
        </mxCell>
        <mxCell id="4cCEXYLUBhIlcCvlgMIO-165" value="" style="endArrow=classic;html=1;rounded=0;entryX=1;entryY=0.5;entryDx=0;entryDy=0;exitX=1;exitY=0.5;exitDx=0;exitDy=0;" edge="1" parent="1" source="4cCEXYLUBhIlcCvlgMIO-175" target="4cCEXYLUBhIlcCvlgMIO-166">
          <mxGeometry width="50" height="50" relative="1" as="geometry">
            <mxPoint x="534.25" y="358" as="sourcePoint" />
            <mxPoint x="584.25" y="308" as="targetPoint" />
            <Array as="points">
              <mxPoint x="1170" y="419" />
              <mxPoint x="1170" y="590" />
              <mxPoint x="-390" y="590" />
            </Array>
          </mxGeometry>
        </mxCell>
        <mxCell id="4cCEXYLUBhIlcCvlgMIO-166" value="cookedProductsChannel" style="rounded=0;whiteSpace=wrap;html=1;dashed=1;dashPattern=12 12;fillColor=#ffe6cc;opacity=50;verticalAlign=middle;align=center;fontStyle=3;strokeColor=#d79b00;fontSize=16;" vertex="1" parent="1">
          <mxGeometry x="-1165" y="560.5" width="245" height="56" as="geometry" />
        </mxCell>
        <mxCell id="4cCEXYLUBhIlcCvlgMIO-168" value="" style="endArrow=classic;html=1;rounded=0;exitX=1;exitY=0.5;exitDx=0;exitDy=0;entryX=1;entryY=0.5;entryDx=0;entryDy=0;" edge="1" parent="1" source="4cCEXYLUBhIlcCvlgMIO-90" target="4cCEXYLUBhIlcCvlgMIO-76">
          <mxGeometry width="50" height="50" relative="1" as="geometry">
            <mxPoint x="-2280" y="490" as="sourcePoint" />
            <mxPoint x="-2230" y="440" as="targetPoint" />
          </mxGeometry>
        </mxCell>
        <mxCell id="4cCEXYLUBhIlcCvlgMIO-171" value="" style="endArrow=classic;html=1;rounded=0;exitX=0;exitY=0.5;exitDx=0;exitDy=0;entryX=1;entryY=0.75;entryDx=0;entryDy=0;" edge="1" parent="1" source="4cCEXYLUBhIlcCvlgMIO-166" target="4cCEXYLUBhIlcCvlgMIO-144">
          <mxGeometry width="50" height="50" relative="1" as="geometry">
            <mxPoint x="-895.75" y="488" as="sourcePoint" />
            <mxPoint x="-1000" y="528.3062499999996" as="targetPoint" />
            <Array as="points">
              <mxPoint x="-1240" y="590" />
              <mxPoint x="-1240" y="558" />
            </Array>
          </mxGeometry>
        </mxCell>
        <mxCell id="4cCEXYLUBhIlcCvlgMIO-172" value="CoffeeCup" style="rounded=0;whiteSpace=wrap;html=1;dashed=1;dashPattern=1 2;container=0;" vertex="1" parent="1">
          <mxGeometry x="-907" y="564.5" width="80" height="20" as="geometry" />
        </mxCell>
        <mxCell id="4cCEXYLUBhIlcCvlgMIO-173" value="CoffeeCup" style="rounded=0;whiteSpace=wrap;html=1;dashed=1;dashPattern=1 2;container=0;" vertex="1" parent="1">
          <mxGeometry x="-1560" y="540.5" width="80" height="20" as="geometry" />
        </mxCell>
        <mxCell id="4cCEXYLUBhIlcCvlgMIO-174" value="List&amp;lt;AbstractProduct&amp;gt;" style="rounded=0;whiteSpace=wrap;html=1;dashed=1;dashPattern=1 2;container=0;" vertex="1" parent="1">
          <mxGeometry x="-1620" y="343" width="130" height="20" as="geometry" />
        </mxCell>
        <mxCell id="4cCEXYLUBhIlcCvlgMIO-175" value="CoffeeCup::&lt;br&gt;giveAwayCoffeeCup" style="shape=parallelogram;perimeter=parallelogramPerimeter;whiteSpace=wrap;html=1;fixedSize=1;fillColor=#cdeb8b;strokeColor=#36393d;fontStyle=1" vertex="1" parent="1">
          <mxGeometry x="940" y="388.5" width="140" height="60" as="geometry" />
        </mxCell>
        <mxCell id="4cCEXYLUBhIlcCvlgMIO-176" value="" style="endArrow=classic;html=1;rounded=0;entryX=0;entryY=0.5;entryDx=0;entryDy=0;exitX=1;exitY=0.5;exitDx=0;exitDy=0;" edge="1" parent="1" source="4cCEXYLUBhIlcCvlgMIO-164" target="4cCEXYLUBhIlcCvlgMIO-175">
          <mxGeometry width="50" height="50" relative="1" as="geometry">
            <mxPoint x="420" y="531" as="sourcePoint" />
            <mxPoint x="470" y="481" as="targetPoint" />
          </mxGeometry>
        </mxCell>
        <mxCell id="4cCEXYLUBhIlcCvlgMIO-177" value="CoffeeCup" style="rounded=0;whiteSpace=wrap;html=1;dashed=1;dashPattern=1 2;container=0;" vertex="1" parent="1">
          <mxGeometry x="1080" y="394" width="80" height="20" as="geometry" />
        </mxCell>
        <mxCell id="4cCEXYLUBhIlcCvlgMIO-178" value="CoffeeCup" style="rounded=0;whiteSpace=wrap;html=1;dashed=1;dashPattern=1 2;container=0;" vertex="1" parent="1">
          <mxGeometry x="716" y="393" width="80" height="20" as="geometry" />
        </mxCell>
        <mxCell id="4cCEXYLUBhIlcCvlgMIO-179" value="CoffeeCup" style="rounded=0;whiteSpace=wrap;html=1;dashed=1;dashPattern=1 2;container=0;" vertex="1" parent="1">
          <mxGeometry x="-2475" y="468" width="80" height="20" as="geometry" />
        </mxCell>
      </root>
    </mxGraphModel>
  </diagram>
</mxfile>
